<?xml version="1.0" encoding="utf-8"?>
<!-- Generator: Adobe Illustrator 18.1.1, SVG Export Plug-In . SVG Version: 6.00 Build 0)  -->
<svg version="1.1" xmlns="http://www.w3.org/2000/svg" xmlns:xlink="http://www.w3.org/1999/xlink" x="0px" y="0px"
	 viewBox="-48 0 126 30" enable-background="new -48 0 126 30" xml:space="preserve">
<g id="Layer_2" display="none">
	<rect x="-47.7" y="0" display="inline" fill="#CCCCCC" width="125.6" height="29.7"/>
</g>
<g id="Layer_1">
	<g>
		<path fill="#333" d="M65.4,21.1l12.3-13V3.9H59.2v4.7h12l-12.3,13v4.2h17.1l0,0c1.2,0,2.2-1,2.2-2.2l0,0v-2.5
			C78,21.1,65.4,21.1,65.4,21.1z"/>
		<path fill="#333" d="M15.9,3.9h-5.3v19.8l0,0l0,0c0,1.2,1,2.2,2.3,2.2l0,0l0,0H28v-4.7H15.9V3.9z"/>
		<path fill="#333" d="M39.9,3.9c-1.2,0-2.3,1-2.3,2.2v0.1v2.5h7v17.2h5.3V8.7h7V3.9H39.9L39.9,3.9z"/>
		<path fill="#333" d="M4.8,14.3c1.5-0.6,3-2.1,3-4.3c0-4.4-3.4-6.1-8-6.1H-9l0,0c0,0,0,0-0.1,0c-1.2,0-2.3,1-2.3,2.2
			c0,0,0,0,0,0.1l0,0v19.7H0c4.9,0,8.5-2.3,8.5-6.6C8.5,16.7,6.9,14.9,4.8,14.3z M-6.1,8.5h5.9c1.7,0,2.9,0.5,2.9,2.1
			c0,1.4-0.9,2.1-2.9,2.1h-5.9V8.5z M0,21.3h-6.1v-4.4h6c2.3,0,3.4,0.6,3.4,2.2C3.3,20.6,1.8,21.3,0,21.3z"/>
		<rect x="30.2" y="3.9" fill="#333" width="5.3" height="22.1"/>
	</g>
	<g>
		<g>
			<path fill="#00C1F2" d="M-23.1,6.3c-3-2.1-6.8-2.4-8.7-2.4H-33V0.3c0,0-5.4,0.1-8.6,4.7c-2.1,3-2.4,6.8-2.4,8.7V15h-3.7
				c0,0,0.1,5.4,4.7,8.6c3,2.1,6.8,2.4,8.7,2.4h1.3v3.7c0,0,5.4-0.1,8.6-4.7c2.1-3,2.4-6.8,2.4-8.7V15h3.7
				C-18.4,15-18.4,9.6-23.1,6.3z M-27.3,19.5c0,0.6-0.5,1.1-1.1,1.1h-9.1c-0.6,0-1.1-0.5-1.1-1.1v-9.1c0-0.6,0.5-1.1,1.1-1.1h9.1
				c0.6,0,1.1,0.5,1.1,1.1V19.5z"/>
		</g>
	</g>
</g>
</svg>
